# Blender 3.5.1
# www.blender.org
mtllib horse.mtl
o Cube
v 0.221500 0.221500 -0.777925
v 0.221500 -0.221500 -0.777925
v 0.172331 0.086806 -0.265506
v 0.172331 -0.172331 -0.265506
v -0.221500 0.221500 -0.777925
v -0.221500 -0.221500 -0.777925
v -0.172331 0.086806 -0.265506
v -0.172331 -0.172331 -0.265506
v -0.172331 -0.172331 -0.008666
v -0.172331 0.281080 -0.194704
v 0.172331 0.281080 -0.194704
v 0.172331 -0.172331 -0.008666
v -0.172331 -0.172331 0.528017
v -0.172331 0.181623 0.108845
v 0.172331 0.181623 0.108845
v 0.172331 -0.172331 0.528017
v -0.172331 -0.172331 0.648913
v -0.172331 -0.012650 0.415779
v 0.172331 -0.012650 0.415779
v 0.172331 -0.172331 0.648913
v -0.172331 -0.064688 0.811396
v -0.172331 0.296993 0.504258
v 0.172331 0.296993 0.504258
v 0.172331 -0.064688 0.811396
v -0.172331 0.181623 0.108845
v -0.172331 0.477069 0.770480
v 0.172331 0.477069 0.770480
v 0.172331 0.181623 0.108845
v 0.078558 0.626332 0.387059
v -0.078558 0.626332 0.387059
v 0.078558 0.708421 0.508419
v -0.078558 0.708421 0.508419
v 0.221500 -0.021517 -0.777925
v -0.172331 -0.055349 -0.265506
v 0.172331 -0.055349 -0.265506
v -0.221500 -0.021517 -0.777925
v -0.172331 0.032352 -0.092649
v 0.172331 0.032352 -0.092649
v -0.172331 -0.012546 0.338790
v 0.172331 -0.012546 0.338790
v -0.172331 -0.100246 0.543670
v 0.172331 -0.100246 0.543670
v -0.172331 0.098585 0.672745
v 0.172331 0.098585 0.672745
v -0.172331 0.278661 0.938967
v 0.172331 0.278661 0.938967
v 0.172331 0.040464 0.966852
v -0.172331 0.050660 0.981926
v 0.172331 0.278661 1.025296
v 0.172331 0.115388 1.163947
v -0.172331 0.115388 1.163947
v -0.172331 0.050660 1.068254
v 0.172331 0.040464 1.053180
v -0.172331 0.278661 1.025296
v 0.171568 -0.011877 0.414925
v -0.173094 -0.011877 0.414925
v -0.172331 -0.009408 0.416497
vn -0.0000 0.9671 0.2542
vn -0.0000 0.3424 -0.9395
vn -0.9954 -0.0000 0.0955
vn -0.0000 -0.9954 0.0955
vn 0.9954 -0.0000 0.0955
vn -0.0000 -0.0000 -1.0000
vn -0.0000 0.9503 0.3114
vn 1.0000 -0.0000 -0.0000
vn -1.0000 -0.0000 -0.0000
vn -0.0000 -1.0000 -0.0000
vn -0.0000 0.2747 -0.9615
vn -0.0000 1.0000 -0.0000
vn -0.0000 -0.3353 -0.9421
vn -0.0000 -0.8337 0.5523
vn -0.0000 0.6473 0.7622
vn -0.0000 -0.8283 0.5603
vn -0.0000 0.8283 -0.5603
vn 0.9637 0.2212 -0.1496
vn -0.9637 0.2212 -0.1496
vn -0.0000 0.7497 0.6618
vn -0.7115 -0.7027 -0.0010
vn -0.0296 -0.9996 -0.0000
vn 0.0085 0.8495 0.5275
vn -0.7954 -0.1310 0.5917
vn 0.0029 -0.2161 0.9764
vn 1.0000 -0.0000 -0.0004
vn 0.2498 0.8182 0.5179
vn -0.9999 -0.0117 -0.0099
vn -0.0000 0.8453 0.5344
vn -0.9677 0.2143 0.1330
vn -0.0000 0.7412 0.6712
vt 0.625000 0.500000
vt 0.375000 0.500000
vt 0.625000 0.750000
vt 0.375000 0.750000
vt 0.875000 0.500000
vt 0.625000 0.250000
vt 0.125000 0.500000
vt 0.375000 0.250000
vt 0.875000 0.750000
vt 0.625000 0.000000
vt 0.125000 0.750000
vt 0.375000 0.000000
vt 0.125000 0.750000
vt 0.375000 0.000000
vt 0.625000 0.000000
vt 0.875000 0.750000
vt 0.625000 0.750000
vt 0.375000 0.750000
vt 0.125000 0.750000
vt 0.375000 0.000000
vt 0.625000 0.000000
vt 0.875000 0.750000
vt 0.625000 0.750000
vt 0.375000 0.750000
vt 0.125000 0.750000
vt 0.375000 0.000000
vt 0.625000 0.000000
vt 0.875000 0.750000
vt 0.625000 0.750000
vt 0.375000 0.750000
vt 0.375000 0.000000
vt 0.125000 0.750000
vt 0.875000 0.750000
vt 0.625000 0.000000
vt 0.625000 0.750000
vt 0.375000 0.750000
vt 0.625000 0.000000
vt 0.875000 0.750000
vt 0.625000 1.000000
vt 0.625000 0.000000
vt 0.625000 0.750000
vt 0.625000 0.750000
vt 0.625000 0.750000
vt 0.625000 0.000000
vt 0.875000 0.750000
vt 0.625000 0.750000
vt 0.875000 0.750000
vt 0.625000 0.000000
vt 0.625000 1.000000
vt 0.487857 0.500000
vt 0.487857 0.000000
vt 0.487857 0.750000
vt 0.487857 0.250000
vt 0.487857 0.000000
vt 0.487857 0.750000
vt 0.487857 0.000000
vt 0.487857 0.750000
vt 0.487857 0.000000
vt 0.487857 0.750000
vt 0.487857 0.000000
vt 0.487857 0.750000
vt 0.487857 0.000000
vt 0.487857 1.000000
vt 0.487857 0.750000
vt 0.375000 0.750000
vt 0.375000 0.000000
vt 0.125000 0.750000
vt 0.487857 0.750000
vt 0.375000 0.750000
vt 0.375000 0.000000
vt 0.125000 0.750000
vt 0.375000 1.000000
vt 0.375000 0.000000
vt 0.125000 0.750000
vt 0.375000 0.750000
vt 0.487857 0.000000
vt 0.487857 1.000000
vt 0.625000 0.750000
vt 0.625000 0.000000
vt 0.875000 0.750000
vt 0.875000 0.750000
vt 0.625000 0.000000
vt 0.872302 0.750000
s 0
usemtl Material
f 5/5/1 3/3/1 1/1/1
f 7/9/2 11/17/2 3/3/2
f 7/10/3 36/53/3 34/51/3
f 2/2/4 8/11/4 6/7/4
f 33/50/5 3/3/5 35/52/5
f 5/6/6 33/50/6 36/53/6
f 10/16/7 15/23/7 11/17/7
f 3/3/8 38/55/8 35/52/8
f 34/51/9 9/14/9 37/54/9
f 4/4/10 9/13/10 8/11/10
f 16/24/10 17/25/10 13/19/10
f 9/14/9 39/56/9 37/54/9
f 12/18/10 13/19/10 9/13/10
f 38/55/8 15/23/8 40/57/8
f 18/28/11 22/33/11 23/35/11
f 15/23/8 19/29/8 42/59/8
f 55/78/12 15/23/12 28/42/12
f 13/20/9 41/58/9 39/56/9
f 22/33/13 29/43/13 23/35/13
f 17/26/9 43/60/9 41/58/9
f 20/30/14 21/32/14 17/25/14
f 19/29/8 44/61/8 42/59/8
f 27/41/15 45/63/15 46/64/15
f 43/60/9 48/66/9 45/62/9
f 21/32/16 47/65/16 48/67/16
f 44/61/8 27/41/8 46/64/8
f 30/45/17 31/46/17 29/43/17
f 23/35/18 31/46/18 27/41/18
f 22/34/19 32/48/19 30/44/19
f 27/41/20 32/49/20 26/39/20
f 44/61/8 47/65/8 24/36/8
f 43/60/9 26/40/9 22/34/9
f 48/66/9 54/76/9 45/62/9
f 20/30/8 44/61/8 24/36/8
f 41/58/9 22/34/9 57/82/9
f 39/56/21 18/27/21 56/79/21
f 16/24/8 42/59/8 20/30/8
f 12/18/8 40/57/8 16/24/8
f 37/54/9 14/21/9 10/15/9
f 7/10/9 37/54/9 10/15/9
f 35/52/8 12/18/8 4/4/8
f 36/53/6 2/2/6 6/8/6
f 33/50/5 4/4/5 2/2/5
f 8/12/3 36/53/3 6/8/3
f 48/67/22 53/75/22 52/74/22
f 45/63/12 49/68/12 46/64/12
f 47/65/8 49/68/8 53/75/8
f 49/68/15 51/72/15 50/69/15
f 54/76/9 52/73/9 51/70/9
f 53/75/8 49/68/8 50/69/8
f 52/74/16 50/69/16 51/71/16
f 25/38/23 57/83/23 55/78/23
f 18/28/24 57/83/24 56/80/24
f 15/23/12 25/38/12 28/42/12
f 18/28/25 55/78/25 57/83/25
f 14/21/12 56/79/12 25/37/12
f 5/5/1 7/9/1 3/3/1
f 7/9/2 10/16/2 11/17/2
f 7/10/3 5/6/3 36/53/3
f 2/2/4 4/4/4 8/11/4
f 33/50/5 1/1/5 3/3/5
f 5/6/6 1/1/6 33/50/6
f 10/16/7 14/22/7 15/23/7
f 3/3/8 11/17/8 38/55/8
f 34/51/9 8/12/9 9/14/9
f 4/4/10 12/18/10 9/13/10
f 16/24/10 20/30/10 17/25/10
f 9/14/9 13/20/9 39/56/9
f 12/18/10 16/24/10 13/19/10
f 38/55/8 11/17/8 15/23/8
f 23/35/11 19/29/11 18/28/11
f 18/28/26 57/81/26 22/33/26
f 42/59/8 40/57/8 15/23/8
f 15/23/27 55/78/27 19/29/27
f 13/20/9 17/26/9 41/58/9
f 22/33/13 30/45/13 29/43/13
f 17/26/9 21/31/9 43/60/9
f 20/30/14 24/36/14 21/32/14
f 19/29/8 23/35/8 44/61/8
f 27/41/15 26/39/15 45/63/15
f 43/60/9 21/31/9 48/66/9
f 21/32/16 24/36/16 47/65/16
f 44/61/8 23/35/8 27/41/8
f 30/45/17 32/47/17 31/46/17
f 23/35/18 29/43/18 31/46/18
f 22/34/19 26/40/19 32/48/19
f 27/41/20 31/46/20 32/49/20
f 44/61/8 46/64/8 47/65/8
f 43/60/9 45/62/9 26/40/9
f 48/66/9 52/73/9 54/76/9
f 20/30/8 42/59/8 44/61/8
f 57/82/9 18/27/9 41/58/9
f 41/58/9 43/60/9 22/34/9
f 56/79/28 14/21/28 39/56/28
f 39/56/9 41/58/9 18/27/9
f 16/24/8 40/57/8 42/59/8
f 12/18/8 38/55/8 40/57/8
f 37/54/9 39/56/9 14/21/9
f 7/10/9 34/51/9 37/54/9
f 35/52/8 38/55/8 12/18/8
f 36/53/6 33/50/6 2/2/6
f 33/50/5 35/52/5 4/4/5
f 8/12/3 34/51/3 36/53/3
f 48/67/22 47/65/22 53/75/22
f 45/63/12 54/77/12 49/68/12
f 47/65/8 46/64/8 49/68/8
f 49/68/15 54/77/15 51/72/15
f 52/74/16 53/75/16 50/69/16
f 55/78/29 28/42/29 25/38/29
f 25/38/30 56/80/30 57/83/30
f 15/23/12 14/22/12 25/38/12
f 18/28/31 19/29/31 55/78/31
