# Blender 3.5.1
# www.blender.org
mtllib king.mtl
o Cube
v 0.221500 0.221500 -0.795369
v 0.221500 -0.221500 -0.795369
v 0.221500 0.221500 -0.756373
v 0.221500 -0.221500 -0.756373
v -0.221500 0.221500 -0.795369
v -0.221500 -0.221500 -0.795369
v -0.221500 0.221500 -0.756373
v -0.221500 -0.221500 -0.756373
v -0.069263 -0.069263 -0.733005
v -0.069263 0.069263 -0.733005
v 0.069263 0.069263 -0.733005
v 0.069263 -0.069263 -0.733005
v -0.220564 -0.220564 -0.674401
v -0.220564 0.220564 -0.674401
v 0.220564 0.220564 -0.674401
v 0.220564 -0.220564 -0.674401
v -0.103209 -0.103209 -0.450790
v -0.103209 0.103209 -0.450790
v 0.103209 0.103209 -0.450790
v 0.103209 -0.103209 -0.450790
v -0.103209 -0.103209 0.216941
v -0.103209 0.103209 0.216941
v 0.103209 0.103209 0.216941
v 0.103209 -0.103209 0.216941
v -0.162226 -0.162226 0.270052
v -0.162226 0.162226 0.270052
v 0.162226 0.162226 0.270052
v 0.162226 -0.162226 0.270052
v -0.103556 -0.103556 0.302153
v -0.103556 0.103556 0.302153
v 0.103556 0.103556 0.302153
v 0.103556 -0.103556 0.302153
v -0.103556 -0.103556 0.401315
v -0.103556 0.103556 0.401315
v 0.103556 0.103556 0.401315
v 0.103556 -0.103556 0.401315
v -0.171904 -0.171904 0.499452
v -0.171904 0.171904 0.499452
v 0.171904 0.171904 0.499452
v 0.171904 -0.171904 0.499452
v -0.110374 -0.110374 0.696684
v -0.110374 0.110374 0.696684
v 0.110374 0.110374 0.696684
v 0.110374 -0.110374 0.696684
v -0.241659 -0.241659 0.696684
v -0.241659 0.241659 0.696684
v 0.241659 0.241659 0.696684
v 0.241659 -0.241659 0.696684
v -0.110374 -0.110374 0.860454
v -0.110374 0.110374 0.860454
v 0.110374 0.110374 0.860454
v 0.110374 -0.110374 0.860454
v -0.110374 -0.110374 1.045756
v -0.110374 0.110374 1.045756
v 0.110374 0.110374 1.045756
v 0.110374 -0.110374 1.045756
v 0.244555 0.110374 0.860454
v 0.244555 -0.110374 0.860454
v 0.244555 0.110374 1.045756
v 0.244555 -0.110374 1.045756
v -0.244313 -0.110374 0.860454
v -0.244313 0.110374 0.860454
v -0.244313 -0.110374 1.045756
v -0.244313 0.110374 1.045756
v -0.110374 -0.110374 1.144775
v -0.110374 0.110374 1.144775
v 0.110374 0.110374 1.144775
v 0.110374 -0.110374 1.144775
vn -0.0000 1.0000 -0.0000
vn -0.1517 -0.0000 0.9884
vn -1.0000 -0.0000 -0.0000
vn -0.0000 -1.0000 -0.0000
vn 1.0000 -0.0000 -0.0000
vn -0.0000 -0.0000 -1.0000
vn -0.0000 0.3612 -0.9325
vn -0.0000 -0.1517 0.9884
vn -0.0000 0.1517 0.9884
vn 0.1517 -0.0000 0.9884
vn -0.0000 0.8855 0.4647
vn -0.3612 -0.0000 -0.9325
vn -0.0000 -0.3612 -0.9325
vn 0.3612 -0.0000 -0.9325
vn -0.8855 -0.0000 0.4647
vn -0.0000 -0.8855 0.4647
vn 0.8855 -0.0000 0.4647
vn 0.6689 -0.0000 -0.7433
vn -0.0000 0.4800 0.8773
vn -0.0000 0.6689 -0.7433
vn -0.6689 -0.0000 -0.7433
vn -0.0000 -0.6689 -0.7433
vn -0.4800 -0.0000 0.8773
vn -0.0000 -0.4800 0.8773
vn 0.4800 -0.0000 0.8773
vn -0.0000 0.8206 -0.5715
vn -0.0000 0.9428 -0.3334
vn -0.8206 -0.0000 -0.5715
vn -0.0000 -0.8206 -0.5715
vn 0.8206 -0.0000 -0.5715
vn -0.9428 -0.0000 -0.3334
vn -0.0000 -0.9428 -0.3334
vn 0.9428 -0.0000 -0.3334
vn -0.0000 -0.0000 1.0000
vt 0.625000 0.500000
vt 0.375000 0.500000
vt 0.625000 0.750000
vt 0.375000 0.750000
vt 0.875000 0.500000
vt 0.625000 0.250000
vt 0.125000 0.500000
vt 0.375000 0.250000
vt 0.625000 0.000000
vt 0.875000 0.750000
vt 0.375000 0.000000
vt 0.125000 0.750000
vt 0.125000 0.750000
vt 0.375000 0.000000
vt 0.625000 0.000000
vt 0.875000 0.750000
vt 0.625000 0.750000
vt 0.375000 0.750000
vt 0.125000 0.750000
vt 0.375000 0.000000
vt 0.875000 0.750000
vt 0.625000 0.000000
vt 0.625000 0.750000
vt 0.375000 0.750000
vt 0.125000 0.750000
vt 0.375000 0.000000
vt 0.625000 0.000000
vt 0.875000 0.750000
vt 0.625000 0.750000
vt 0.375000 0.750000
vt 0.125000 0.750000
vt 0.375000 0.000000
vt 0.875000 0.750000
vt 0.625000 0.000000
vt 0.625000 0.750000
vt 0.375000 0.750000
vt 0.125000 0.750000
vt 0.375000 0.000000
vt 0.625000 0.000000
vt 0.875000 0.750000
vt 0.625000 0.750000
vt 0.375000 0.750000
vt 0.125000 0.750000
vt 0.375000 0.000000
vt 0.625000 0.000000
vt 0.875000 0.750000
vt 0.625000 0.750000
vt 0.375000 0.750000
vt 0.125000 0.750000
vt 0.375000 0.000000
vt 0.875000 0.750000
vt 0.625000 0.000000
vt 0.625000 0.750000
vt 0.375000 0.750000
vt 0.125000 0.750000
vt 0.375000 0.000000
vt 0.875000 0.750000
vt 0.625000 0.000000
vt 0.625000 0.750000
vt 0.375000 0.750000
vt 0.442908 0.932092
vt 0.557092 0.932092
vt 0.557092 0.817908
vt 0.442908 0.817908
vt 0.375000 0.000000
vt 0.125000 0.750000
vt 0.375000 1.000000
vt 0.875000 0.750000
vt 0.625000 0.000000
vt 0.625000 1.000000
vt 0.625000 0.750000
vt 0.375000 0.750000
vt 0.442908 0.932092
vt 0.557092 0.932092
vt 0.557092 0.817908
vt 0.442908 0.817908
vt 0.442908 0.932092
vt 0.557092 0.932092
vt 0.557092 0.817908
vt 0.442908 0.817908
vt 0.557092 0.817908
vt 0.442908 0.817908
vt 0.557092 0.817908
vt 0.442908 0.817908
vt 0.442908 0.932092
vt 0.557092 0.932092
vt 0.442908 0.932092
vt 0.557092 0.932092
vt 0.442908 0.932092
vt 0.557092 0.932092
vt 0.557092 0.817908
vt 0.442908 0.817908
s 0
usemtl Material
f 5/5/1 3/3/1 1/1/1
f 8/11/2 10/15/2 7/9/2
f 7/9/3 6/8/3 8/11/3
f 2/2/4 8/12/4 6/7/4
f 1/1/5 4/4/5 2/2/5
f 5/6/6 2/2/6 6/8/6
f 10/16/7 15/23/7 11/17/7
f 4/4/8 9/13/8 8/12/8
f 7/10/9 11/17/9 3/3/9
f 3/3/10 12/18/10 4/4/10
f 14/21/11 19/29/11 15/23/11
f 9/14/12 14/22/12 10/15/12
f 12/18/13 13/19/13 9/13/13
f 11/17/14 16/24/14 12/18/14
f 20/30/4 21/31/4 17/25/4
f 13/20/15 18/27/15 14/22/15
f 16/24/16 17/25/16 13/19/16
f 15/23/17 20/30/17 16/24/17
f 24/36/18 27/41/18 28/42/18
f 19/29/5 24/36/5 20/30/5
f 18/28/1 23/35/1 19/29/1
f 17/26/3 22/34/3 18/27/3
f 26/40/19 31/47/19 27/41/19
f 22/33/20 27/41/20 23/35/20
f 22/34/21 25/38/21 26/39/21
f 24/36/22 25/37/22 21/31/22
f 32/48/4 33/49/4 29/43/4
f 25/38/23 30/45/23 26/39/23
f 28/42/24 29/43/24 25/37/24
f 27/41/25 32/48/25 28/42/25
f 34/51/26 39/59/26 35/53/26
f 31/47/5 36/54/5 32/48/5
f 30/46/1 35/53/1 31/47/1
f 29/44/3 34/52/3 30/45/3
f 38/57/27 47/71/27 39/59/27
f 33/50/28 38/58/28 34/52/28
f 36/54/29 37/55/29 33/49/29
f 35/53/30 40/60/30 36/54/30
f 41/61/3 50/74/3 42/62/3
f 37/56/31 46/69/31 38/58/31
f 40/60/32 45/66/32 37/55/32
f 39/59/33 48/72/33 40/60/33
f 42/62/34 45/67/34 41/61/34
f 44/64/34 47/71/34 43/63/34
f 43/63/34 46/70/34 42/62/34
f 41/61/34 48/72/34 44/64/34
f 52/76/4 53/77/4 49/73/4
f 44/64/4 49/73/4 41/61/4
f 43/63/5 52/76/5 44/64/5
f 42/62/1 51/75/1 43/63/1
f 54/78/1 67/91/1 55/79/1
f 55/79/1 57/81/1 51/75/1
f 50/74/1 55/79/1 51/75/1
f 54/78/34 63/87/34 53/77/34
f 57/81/5 60/84/5 58/82/5
f 51/75/6 58/82/6 52/76/6
f 52/76/4 60/84/4 56/80/4
f 56/80/34 59/83/34 55/79/34
f 61/85/3 64/88/3 62/86/3
f 50/74/1 64/88/1 54/78/1
f 53/77/4 61/85/4 49/73/4
f 49/73/6 62/86/6 50/74/6
f 67/91/34 65/89/34 68/92/34
f 53/77/3 66/90/3 54/78/3
f 56/80/4 65/89/4 53/77/4
f 55/79/5 68/92/5 56/80/5
f 5/5/1 7/10/1 3/3/1
f 8/11/2 9/14/2 10/15/2
f 7/9/3 5/6/3 6/8/3
f 2/2/4 4/4/4 8/12/4
f 1/1/5 3/3/5 4/4/5
f 5/6/6 1/1/6 2/2/6
f 10/16/7 14/21/7 15/23/7
f 4/4/8 12/18/8 9/13/8
f 7/10/9 10/16/9 11/17/9
f 3/3/10 11/17/10 12/18/10
f 14/21/11 18/28/11 19/29/11
f 9/14/12 13/20/12 14/22/12
f 12/18/13 16/24/13 13/19/13
f 11/17/14 15/23/14 16/24/14
f 20/30/4 24/36/4 21/31/4
f 13/20/15 17/26/15 18/27/15
f 16/24/16 20/30/16 17/25/16
f 15/23/17 19/29/17 20/30/17
f 24/36/18 23/35/18 27/41/18
f 19/29/5 23/35/5 24/36/5
f 18/28/1 22/33/1 23/35/1
f 17/26/3 21/32/3 22/34/3
f 26/40/19 30/46/19 31/47/19
f 22/33/20 26/40/20 27/41/20
f 22/34/21 21/32/21 25/38/21
f 24/36/22 28/42/22 25/37/22
f 32/48/4 36/54/4 33/49/4
f 25/38/23 29/44/23 30/45/23
f 28/42/24 32/48/24 29/43/24
f 27/41/25 31/47/25 32/48/25
f 34/51/26 38/57/26 39/59/26
f 31/47/5 35/53/5 36/54/5
f 30/46/1 34/51/1 35/53/1
f 29/44/3 33/50/3 34/52/3
f 38/57/27 46/68/27 47/71/27
f 33/50/28 37/56/28 38/58/28
f 36/54/29 40/60/29 37/55/29
f 35/53/30 39/59/30 40/60/30
f 41/61/3 49/73/3 50/74/3
f 37/56/31 45/65/31 46/69/31
f 40/60/32 48/72/32 45/66/32
f 39/59/33 47/71/33 48/72/33
f 42/62/34 46/70/34 45/67/34
f 44/64/34 48/72/34 47/71/34
f 43/63/34 47/71/34 46/70/34
f 41/61/34 45/67/34 48/72/34
f 52/76/4 56/80/4 53/77/4
f 44/64/4 52/76/4 49/73/4
f 43/63/5 51/75/5 52/76/5
f 42/62/1 50/74/1 51/75/1
f 54/78/1 66/90/1 67/91/1
f 55/79/1 59/83/1 57/81/1
f 50/74/1 54/78/1 55/79/1
f 54/78/34 64/88/34 63/87/34
f 57/81/5 59/83/5 60/84/5
f 51/75/6 57/81/6 58/82/6
f 52/76/4 58/82/4 60/84/4
f 56/80/34 60/84/34 59/83/34
f 61/85/3 63/87/3 64/88/3
f 50/74/1 62/86/1 64/88/1
f 53/77/4 63/87/4 61/85/4
f 49/73/6 61/85/6 62/86/6
f 67/91/34 66/90/34 65/89/34
f 53/77/3 65/89/3 66/90/3
f 56/80/4 68/92/4 65/89/4
f 55/79/5 67/91/5 68/92/5
