# Blender 3.5.1
# www.blender.org
mtllib kiralyno.mtl
o Cube
v 0.221500 0.221500 -0.792783
v 0.221500 -0.221500 -0.792783
v 0.221500 0.221500 -0.750470
v 0.221500 -0.221500 -0.750470
v -0.221500 0.221500 -0.792783
v -0.221500 -0.221500 -0.792783
v -0.221500 0.221500 -0.750470
v -0.221500 -0.221500 -0.750470
v -0.177787 -0.177787 -0.729305
v -0.177787 0.177787 -0.729305
v 0.177787 0.177787 -0.729305
v 0.177787 -0.177787 -0.729305
v -0.238561 -0.238561 -0.711195
v -0.238561 0.238561 -0.711195
v 0.238561 0.238561 -0.711195
v 0.238561 -0.238561 -0.711195
v -0.189250 -0.189250 -0.633449
v -0.189250 0.189250 -0.633449
v 0.189250 0.189250 -0.633449
v 0.189250 -0.189250 -0.633449
v -0.142807 -0.142807 -0.117241
v -0.142807 0.142807 -0.117241
v 0.142807 0.142807 -0.117241
v 0.142807 -0.142807 -0.117241
v -0.179078 -0.179078 -0.078873
v -0.179078 0.179078 -0.078873
v 0.179078 0.179078 -0.078873
v 0.179078 -0.179078 -0.078873
v -0.118529 -0.118529 -0.053540
v -0.118529 0.118529 -0.053540
v 0.118529 0.118529 -0.053540
v 0.118529 -0.118529 -0.053540
v -0.157587 -0.157587 -0.022898
v -0.157587 0.157587 -0.022898
v 0.157587 0.157587 -0.022898
v 0.157587 -0.157587 -0.022898
v -0.157587 -0.157587 0.124255
v -0.157587 0.157587 0.124255
v 0.157587 0.157587 0.124255
v 0.157587 -0.157587 0.124255
v -0.176397 -0.176397 0.152203
v -0.176397 0.176397 0.152203
v 0.176397 0.176397 0.152203
v 0.176397 -0.176397 0.152203
v -0.132179 -0.132179 0.185647
v -0.132179 0.132179 0.185647
v 0.132179 0.132179 0.185647
v 0.132179 -0.132179 0.185647
v -0.064403 -0.064403 0.324158
v -0.064403 0.064403 0.324158
v 0.064403 0.064403 0.324158
v 0.064403 -0.064403 0.324158
v -0.080303 -0.080303 0.350879
v -0.080303 0.080303 0.350879
v 0.080303 0.080303 0.350879
v 0.080303 -0.080303 0.350879
v -0.080303 -0.080303 0.380624
v -0.080303 0.080303 0.380624
v 0.080303 0.080303 0.380624
v 0.080303 -0.080303 0.380624
v -0.044407 -0.044407 0.405161
v -0.044407 0.044407 0.405161
v 0.044407 0.044407 0.405161
v 0.044407 -0.044407 0.405161
v -0.189250 -0.189250 -0.633449
v -0.189250 0.189250 -0.633449
v 0.189250 0.189250 -0.633449
v 0.189250 -0.189250 -0.633449
v -0.142807 -0.142807 -0.117241
v -0.142807 0.142807 -0.117241
v 0.142807 0.142807 -0.117241
v 0.142807 -0.142807 -0.117241
vn -0.0000 1.0000 -0.0000
vn -0.4358 -0.0000 0.9000
vn -1.0000 -0.0000 -0.0000
vn -0.0000 -1.0000 -0.0000
vn 1.0000 -0.0000 -0.0000
vn -0.0000 -0.0000 -1.0000
vn 0.2856 -0.0000 -0.9584
vn -0.0000 -0.4358 0.9000
vn -0.0000 0.4358 0.9000
vn 0.4358 -0.0000 0.9000
vn -0.0000 -0.8445 0.5356
vn -0.0000 0.2856 -0.9584
vn -0.2856 -0.0000 -0.9584
vn -0.0000 -0.2856 -0.9584
vn 0.8445 -0.0000 0.5356
vn -0.0000 0.8445 0.5356
vn -0.8445 -0.0000 0.5356
vn -0.0000 -0.7267 -0.6870
vn -0.0000 0.3860 0.9225
vn 0.7267 -0.0000 -0.6870
vn -0.0000 0.7267 -0.6870
vn -0.7267 -0.0000 -0.6870
vn -0.0000 -0.6173 -0.7868
vn -0.3860 -0.0000 0.9225
vn -0.0000 -0.3860 0.9225
vn 0.3860 -0.0000 0.9225
vn 0.6173 -0.0000 -0.7868
vn -0.0000 0.6173 -0.7868
vn -0.6173 -0.0000 -0.7868
vn -0.0000 0.8296 -0.5584
vn -0.0000 -0.6032 0.7976
vn -0.8296 -0.0000 -0.5584
vn -0.0000 -0.8296 -0.5584
vn 0.8296 -0.0000 -0.5584
vn -0.0000 0.8982 0.4395
vn 0.6032 -0.0000 0.7976
vn -0.0000 0.6032 0.7976
vn -0.6032 -0.0000 0.7976
vn -0.0000 -0.8594 -0.5114
vn -0.8982 -0.0000 0.4395
vn -0.0000 -0.8982 0.4395
vn 0.8982 -0.0000 0.4395
vn 0.8594 -0.0000 -0.5114
vn -0.0000 0.8594 -0.5114
vn -0.8594 -0.0000 -0.5114
vn -0.0000 0.5643 0.8256
vn -0.0000 -0.0000 1.0000
vn -0.5643 -0.0000 0.8256
vn -0.0000 -0.5643 0.8256
vn 0.5643 -0.0000 0.8256
vn -0.9960 -0.0000 0.0896
vn -0.0000 -0.9960 0.0896
vn 0.9960 -0.0000 0.0896
vn -0.0000 0.9960 0.0896
vn -0.0000 -0.6172 -0.7868
vn -0.0000 0.6172 -0.7868
vt 0.625000 0.500000
vt 0.375000 0.500000
vt 0.625000 0.750000
vt 0.375000 0.750000
vt 0.875000 0.500000
vt 0.625000 0.250000
vt 0.125000 0.500000
vt 0.375000 0.250000
vt 0.625000 0.000000
vt 0.875000 0.750000
vt 0.375000 0.000000
vt 0.125000 0.750000
vt 0.125000 0.750000
vt 0.375000 0.000000
vt 0.625000 0.000000
vt 0.875000 0.750000
vt 0.625000 0.750000
vt 0.375000 0.750000
vt 0.125000 0.750000
vt 0.375000 0.000000
vt 0.625000 0.000000
vt 0.875000 0.750000
vt 0.625000 0.750000
vt 0.375000 0.750000
vt 0.125000 0.750000
vt 0.375000 0.000000
vt 0.875000 0.750000
vt 0.625000 0.000000
vt 0.625000 0.750000
vt 0.375000 0.750000
vt 0.375000 0.000000
vt 0.125000 0.750000
vt 0.625000 0.000000
vt 0.875000 0.750000
vt 0.625000 0.750000
vt 0.375000 0.750000
vt 0.125000 0.750000
vt 0.375000 0.000000
vt 0.875000 0.750000
vt 0.625000 0.000000
vt 0.625000 0.750000
vt 0.375000 0.750000
vt 0.125000 0.750000
vt 0.375000 0.000000
vt 0.625000 0.000000
vt 0.875000 0.750000
vt 0.625000 0.750000
vt 0.375000 0.750000
vt 0.125000 0.750000
vt 0.375000 0.000000
vt 0.625000 0.000000
vt 0.875000 0.750000
vt 0.625000 0.750000
vt 0.375000 0.750000
vt 0.125000 0.750000
vt 0.375000 0.000000
vt 0.875000 0.750000
vt 0.625000 0.000000
vt 0.625000 0.750000
vt 0.375000 0.750000
vt 0.125000 0.750000
vt 0.375000 0.000000
vt 0.875000 0.750000
vt 0.625000 0.000000
vt 0.625000 0.750000
vt 0.375000 0.750000
vt 0.125000 0.750000
vt 0.375000 0.000000
vt 0.625000 0.000000
vt 0.875000 0.750000
vt 0.625000 0.750000
vt 0.375000 0.750000
vt 0.125000 0.750000
vt 0.375000 0.000000
vt 0.625000 0.000000
vt 0.875000 0.750000
vt 0.625000 0.750000
vt 0.375000 0.750000
vt 0.125000 0.750000
vt 0.375000 0.000000
vt 0.875000 0.750000
vt 0.625000 0.000000
vt 0.625000 0.750000
vt 0.375000 0.750000
vt 0.125000 0.750000
vt 0.375000 0.000000
vt 0.875000 0.750000
vt 0.625000 0.000000
vt 0.625000 0.750000
vt 0.375000 0.750000
vt 0.375000 1.000000
vt 0.375000 0.000000
vt 0.125000 0.750000
vt 0.875000 0.750000
vt 0.625000 1.000000
vt 0.625000 0.000000
vt 0.625000 0.750000
vt 0.375000 0.750000
vt 0.125000 0.750000
vt 0.375000 0.000000
vt 0.625000 0.000000
vt 0.875000 0.750000
vt 0.625000 0.750000
vt 0.375000 0.750000
vt 0.375000 0.000000
vt 0.125000 0.750000
vt 0.625000 0.000000
vt 0.875000 0.750000
vt 0.625000 0.750000
vt 0.375000 0.750000
s 0
usemtl Material
f 5/5/1 3/3/1 1/1/1
f 8/11/2 10/15/2 7/9/2
f 7/9/3 6/8/3 8/11/3
f 2/2/4 8/12/4 6/7/4
f 1/1/5 4/4/5 2/2/5
f 5/6/6 2/2/6 6/8/6
f 11/17/7 16/24/7 12/18/7
f 4/4/8 9/13/8 8/12/8
f 7/10/9 11/17/9 3/3/9
f 3/3/10 12/18/10 4/4/10
f 16/24/11 17/25/11 13/19/11
f 10/16/12 15/23/12 11/17/12
f 9/14/13 14/21/13 10/15/13
f 12/18/14 13/19/14 9/13/14
f 21/31/1 70/107/1 69/105/1
f 15/23/15 20/30/15 16/24/15
f 14/22/16 19/29/16 15/23/16
f 13/20/17 18/28/17 14/21/17
f 24/36/18 25/37/18 21/32/18
f 22/34/1 71/109/1 70/108/1
f 20/30/1 67/103/1 68/104/1
f 17/25/1 68/104/1 65/99/1
f 26/39/19 31/47/19 27/41/19
f 23/35/20 28/42/20 24/36/20
f 22/34/21 27/41/21 23/35/21
f 21/31/22 26/40/22 22/33/22
f 32/48/23 33/49/23 29/43/23
f 25/38/24 30/45/24 26/40/24
f 28/42/25 29/43/25 25/37/25
f 27/41/26 32/48/26 28/42/26
f 35/53/5 40/60/5 36/54/5
f 31/47/27 36/54/27 32/48/27
f 30/46/28 35/53/28 31/47/28
f 29/44/29 34/51/29 30/45/29
f 38/57/30 43/65/30 39/59/30
f 34/52/1 39/59/1 35/53/1
f 33/50/3 38/58/3 34/51/3
f 36/54/4 37/55/4 33/49/4
f 44/66/31 45/67/31 41/61/31
f 37/56/32 42/64/32 38/58/32
f 40/60/33 41/61/33 37/55/33
f 39/59/34 44/66/34 40/60/34
f 46/70/35 51/77/35 47/71/35
f 44/66/36 47/71/36 48/72/36
f 42/63/37 47/71/37 43/65/37
f 42/64/38 45/68/38 46/69/38
f 52/78/39 53/79/39 49/73/39
f 45/68/40 50/75/40 46/69/40
f 48/72/41 49/73/41 45/67/41
f 47/71/42 52/78/42 48/72/42
f 54/81/1 59/89/1 55/83/1
f 51/77/43 56/84/43 52/78/43
f 50/76/44 55/83/44 51/77/44
f 49/74/45 54/82/45 50/75/45
f 58/87/46 63/97/46 59/89/46
f 53/80/3 58/88/3 54/82/3
f 56/84/4 57/85/4 53/79/4
f 55/83/5 60/90/5 56/84/5
f 63/97/47 61/91/47 64/98/47
f 57/86/48 62/96/48 58/88/48
f 60/90/49 61/93/49 57/85/49
f 59/89/50 64/98/50 60/90/50
f 65/100/51 70/107/51 66/101/51
f 68/104/52 69/106/52 65/99/52
f 67/103/53 72/110/53 68/104/53
f 66/102/54 71/109/54 67/103/54
f 19/29/1 66/102/1 67/103/1
f 24/36/1 69/106/1 72/110/1
f 18/28/1 65/100/1 66/101/1
f 23/35/1 72/110/1 71/109/1
f 5/5/1 7/10/1 3/3/1
f 8/11/2 9/14/2 10/15/2
f 7/9/3 5/6/3 6/8/3
f 2/2/4 4/4/4 8/12/4
f 1/1/5 3/3/5 4/4/5
f 5/6/6 1/1/6 2/2/6
f 11/17/7 15/23/7 16/24/7
f 4/4/8 12/18/8 9/13/8
f 7/10/9 10/16/9 11/17/9
f 3/3/10 11/17/10 12/18/10
f 16/24/11 20/30/11 17/25/11
f 10/16/12 14/22/12 15/23/12
f 9/14/13 13/20/13 14/21/13
f 12/18/14 16/24/14 13/19/14
f 21/31/1 22/33/1 70/107/1
f 15/23/15 19/29/15 20/30/15
f 14/22/16 18/27/16 19/29/16
f 13/20/17 17/26/17 18/28/17
f 24/36/18 28/42/18 25/37/18
f 22/34/1 23/35/1 71/109/1
f 20/30/1 19/29/1 67/103/1
f 17/25/1 20/30/1 68/104/1
f 26/39/19 30/46/19 31/47/19
f 23/35/20 27/41/20 28/42/20
f 22/34/21 26/39/21 27/41/21
f 21/31/22 25/38/22 26/40/22
f 32/48/55 36/54/55 33/49/55
f 25/38/24 29/44/24 30/45/24
f 28/42/25 32/48/25 29/43/25
f 27/41/26 31/47/26 32/48/26
f 35/53/5 39/59/5 40/60/5
f 31/47/27 35/53/27 36/54/27
f 30/46/56 34/52/56 35/53/56
f 29/44/29 33/50/29 34/51/29
f 38/57/30 42/63/30 43/65/30
f 34/52/1 38/57/1 39/59/1
f 33/50/3 37/56/3 38/58/3
f 36/54/4 40/60/4 37/55/4
f 44/66/31 48/72/31 45/67/31
f 37/56/32 41/62/32 42/64/32
f 40/60/33 44/66/33 41/61/33
f 39/59/34 43/65/34 44/66/34
f 46/70/35 50/76/35 51/77/35
f 44/66/36 43/65/36 47/71/36
f 42/63/37 46/70/37 47/71/37
f 42/64/38 41/62/38 45/68/38
f 52/78/39 56/84/39 53/79/39
f 45/68/40 49/74/40 50/75/40
f 48/72/41 52/78/41 49/73/41
f 47/71/42 51/77/42 52/78/42
f 54/81/1 58/87/1 59/89/1
f 51/77/43 55/83/43 56/84/43
f 50/76/44 54/81/44 55/83/44
f 49/74/45 53/80/45 54/82/45
f 58/87/46 62/94/46 63/97/46
f 53/80/3 57/86/3 58/88/3
f 56/84/4 60/90/4 57/85/4
f 55/83/5 59/89/5 60/90/5
f 63/97/47 62/95/47 61/91/47
f 57/86/48 61/92/48 62/96/48
f 60/90/49 64/98/49 61/93/49
f 59/89/50 63/97/50 64/98/50
f 65/100/51 69/105/51 70/107/51
f 68/104/52 72/110/52 69/106/52
f 67/103/53 71/109/53 72/110/53
f 66/102/54 70/108/54 71/109/54
f 19/29/1 18/27/1 66/102/1
f 24/36/1 21/32/1 69/106/1
f 18/28/1 17/26/1 65/100/1
f 23/35/1 24/36/1 72/110/1
