# Blender 3.5.1
# www.blender.org
mtllib paraszt.mtl
o Cube
v 0.221319 1.010492 -0.353030
v 0.221319 1.010492 -0.795669
v 0.221319 0.567853 -0.353030
v 0.221319 0.567853 -0.795669
v -0.221319 1.010492 -0.353030
v -0.221319 1.010492 -0.795669
v -0.221319 0.567853 -0.353030
v -0.221319 0.567853 -0.795669
v 0.078479 0.710694 0.080987
v -0.078479 0.710694 0.080987
v 0.078479 0.867651 0.080987
v -0.078479 0.867651 0.080987
v 0.183484 0.605689 0.407534
v -0.183484 0.605689 0.407534
v 0.183484 0.972656 0.407534
v -0.183484 0.972656 0.407534
v 0.044461 0.744712 0.660178
v -0.044461 0.744712 0.660178
v 0.044461 0.833633 0.660178
v -0.044461 0.833633 0.660178
vn -0.9499 -0.0000 0.3126
vn -0.0000 -1.0000 -0.0000
vn -1.0000 -0.0000 -0.0000
vn -0.0000 -0.0000 -1.0000
vn 1.0000 -0.0000 -0.0000
vn -0.0000 1.0000 -0.0000
vn -0.0000 0.9520 -0.3061
vn 0.9499 -0.0000 0.3126
vn -0.0000 0.9499 0.3126
vn -0.0000 -0.9499 0.3126
vn -0.8761 -0.0000 0.4821
vn 0.9520 -0.0000 -0.3061
vn -0.9520 -0.0000 -0.3061
vn -0.0000 -0.9520 -0.3061
vn -0.0000 -0.0000 1.0000
vn -0.0000 -0.8761 0.4821
vn -0.0000 0.8761 0.4821
vn 0.8761 -0.0000 0.4821
vt 0.625000 0.500000
vt 0.375000 0.500000
vt 0.625000 0.750000
vt 0.375000 0.750000
vt 0.625000 0.250000
vt 0.125000 0.500000
vt 0.375000 0.250000
vt 0.625000 1.000000
vt 0.625000 0.000000
vt 0.375000 0.000000
vt 0.375000 1.000000
vt 0.125000 0.750000
vt 0.625000 0.750000
vt 0.625000 1.000000
vt 0.625000 0.000000
vt 0.625000 0.500000
vt 0.625000 0.250000
vt 0.625000 0.750000
vt 0.625000 0.000000
vt 0.625000 1.000000
vt 0.625000 0.500000
vt 0.625000 0.250000
vt 0.625000 0.750000
vt 0.625000 0.000000
vt 0.875000 0.750000
vt 0.625000 1.000000
vt 0.625000 0.500000
vt 0.875000 0.500000
vt 0.625000 0.250000
s 0
usemtl Material
f 7/9/1 12/17/1 5/5/1
f 3/3/2 8/11/2 4/4/2
f 7/9/3 6/7/3 8/10/3
f 2/2/4 8/12/4 6/6/4
f 1/1/5 4/4/5 2/2/5
f 5/5/6 2/2/6 6/7/6
f 12/17/7 15/21/7 11/16/7
f 1/1/8 9/13/8 3/3/8
f 5/5/9 11/16/9 1/1/9
f 3/3/10 10/14/10 7/8/10
f 14/19/11 20/29/11 16/22/11
f 11/16/12 13/18/12 9/13/12
f 10/15/13 16/22/13 12/17/13
f 9/13/14 14/20/14 10/14/14
f 20/28/15 17/23/15 19/27/15
f 13/18/16 18/26/16 14/20/16
f 16/22/17 19/27/17 15/21/17
f 15/21/18 17/23/18 13/18/18
f 7/9/1 10/15/1 12/17/1
f 3/3/2 7/8/2 8/11/2
f 7/9/3 5/5/3 6/7/3
f 2/2/4 4/4/4 8/12/4
f 1/1/5 3/3/5 4/4/5
f 5/5/6 1/1/6 2/2/6
f 12/17/7 16/22/7 15/21/7
f 1/1/8 11/16/8 9/13/8
f 5/5/9 12/17/9 11/16/9
f 3/3/10 9/13/10 10/14/10
f 14/19/11 18/24/11 20/29/11
f 11/16/12 15/21/12 13/18/12
f 10/15/13 14/19/13 16/22/13
f 9/13/14 13/18/14 14/20/14
f 20/28/15 18/25/15 17/23/15
f 13/18/16 17/23/16 18/26/16
f 16/22/17 20/29/17 19/27/17
f 15/21/18 19/27/18 17/23/18
