# Blender 3.5.1
# www.blender.org
mtllib paraszt.mtl
o Cube
v 0.221500 0.221500 -0.791534
v 0.221500 -0.221500 -0.791534
v 0.221500 0.221500 -0.579039
v 0.221500 -0.221500 -0.579039
v -0.221500 0.221500 -0.791534
v -0.221500 -0.221500 -0.791534
v -0.221500 0.221500 -0.579039
v -0.221500 -0.221500 -0.579039
v -0.221500 -0.221500 -0.579039
v -0.221500 0.221500 -0.579039
v 0.221500 0.221500 -0.579039
v 0.221500 -0.221500 -0.579039
v -0.096565 -0.096565 -0.199890
v -0.096565 0.096565 -0.199890
v 0.096565 0.096565 -0.199890
v 0.096565 -0.096565 -0.199890
v -0.123308 -0.123308 -0.093516
v -0.123308 0.123308 -0.093516
v 0.123308 0.123308 -0.093516
v 0.123308 -0.123308 -0.093516
v -0.194601 -0.194601 0.008362
v -0.194601 0.194601 0.008362
v 0.194601 0.194601 0.008362
v 0.194601 -0.194601 0.008362
v -0.135939 -0.135939 0.072099
v -0.135939 0.135939 0.072099
v 0.135939 0.135939 0.072099
v 0.135939 -0.135939 0.072099
v -0.069855 -0.069855 0.268010
v -0.069855 0.069855 0.268010
v 0.069855 0.069855 0.268010
v 0.069855 -0.069855 0.268010
vn -0.0000 1.0000 -0.0000
vn -1.0000 -0.0000 -0.0000
vn -0.0000 -1.0000 -0.0000
vn 1.0000 -0.0000 -0.0000
vn -0.0000 -0.0000 -1.0000
vn -0.0000 0.9498 0.3130
vn -0.0000 0.9698 -0.2438
vn -0.9498 -0.0000 0.3130
vn -0.0000 -0.9498 0.3130
vn 0.9498 -0.0000 0.3130
vn -0.0000 -0.8193 -0.5733
vn -0.9698 -0.0000 -0.2438
vn -0.0000 -0.9698 -0.2438
vn 0.9698 -0.0000 -0.2438
vn -0.0000 0.7358 0.6772
vn 0.8193 -0.0000 -0.5733
vn -0.0000 0.8193 -0.5733
vn -0.8193 -0.0000 -0.5733
vn -0.9475 -0.0000 0.3196
vn -0.7358 -0.0000 0.6772
vn -0.0000 -0.7358 0.6772
vn 0.7358 -0.0000 0.6772
vn -0.0000 -0.0000 1.0000
vn -0.0000 -0.9475 0.3196
vn 0.9475 -0.0000 0.3196
vn -0.0000 0.9475 0.3196
vt 0.625000 0.500000
vt 0.375000 0.500000
vt 0.625000 0.750000
vt 0.375000 0.750000
vt 0.875000 0.500000
vt 0.625000 0.250000
vt 0.125000 0.500000
vt 0.375000 0.250000
vt 0.625000 0.000000
vt 0.875000 0.750000
vt 0.375000 0.000000
vt 0.125000 0.750000
vt 0.125000 0.750000
vt 0.375000 0.000000
vt 0.625000 0.000000
vt 0.875000 0.750000
vt 0.625000 0.750000
vt 0.375000 0.750000
vt 0.125000 0.750000
vt 0.375000 0.000000
vt 0.875000 0.750000
vt 0.625000 0.000000
vt 0.625000 0.750000
vt 0.375000 0.750000
vt 0.125000 0.750000
vt 0.375000 0.000000
vt 0.625000 0.000000
vt 0.875000 0.750000
vt 0.625000 0.750000
vt 0.375000 0.750000
vt 0.125000 0.750000
vt 0.375000 0.000000
vt 0.875000 0.750000
vt 0.625000 0.000000
vt 0.625000 0.750000
vt 0.375000 0.750000
vt 0.375000 0.000000
vt 0.125000 0.750000
vt 0.625000 0.000000
vt 0.875000 0.750000
vt 0.625000 0.750000
vt 0.375000 0.750000
vt 0.375000 0.000000
vt 0.375000 1.000000
vt 0.125000 0.750000
vt 0.625000 0.000000
vt 0.625000 1.000000
vt 0.875000 0.750000
vt 0.625000 0.750000
vt 0.375000 0.750000
s 0
usemtl Material
f 5/5/1 3/3/1 1/1/1
f 7/9/1 9/14/1 10/15/1
f 7/9/2 6/8/2 8/11/2
f 2/2/3 8/12/3 6/7/3
f 1/1/4 4/4/4 2/2/4
f 5/6/5 2/2/5 6/8/5
f 10/16/6 15/23/6 11/17/6
f 8/12/1 12/18/1 9/13/1
f 3/3/1 10/16/1 11/17/1
f 4/4/1 11/17/1 12/18/1
f 14/21/7 19/29/7 15/23/7
f 9/14/8 14/22/8 10/15/8
f 12/18/9 13/19/9 9/13/9
f 11/17/10 16/24/10 12/18/10
f 20/30/11 21/31/11 17/25/11
f 13/20/12 18/27/12 14/22/12
f 16/24/13 17/25/13 13/19/13
f 15/23/14 20/30/14 16/24/14
f 22/33/15 27/41/15 23/35/15
f 19/29/16 24/36/16 20/30/16
f 18/28/17 23/35/17 19/29/17
f 17/26/18 22/34/18 18/27/18
f 25/37/19 30/46/19 26/39/19
f 21/32/20 26/39/20 22/34/20
f 24/36/21 25/38/21 21/31/21
f 23/35/22 28/42/22 24/36/22
f 31/49/23 29/44/23 32/50/23
f 28/42/24 29/45/24 25/38/24
f 27/41/25 32/50/25 28/42/25
f 26/40/26 31/49/26 27/41/26
f 5/5/1 7/10/1 3/3/1
f 7/9/1 8/11/1 9/14/1
f 7/9/2 5/6/2 6/8/2
f 2/2/3 4/4/3 8/12/3
f 1/1/4 3/3/4 4/4/4
f 5/6/5 1/1/5 2/2/5
f 10/16/6 14/21/6 15/23/6
f 8/12/1 4/4/1 12/18/1
f 3/3/1 7/10/1 10/16/1
f 4/4/1 3/3/1 11/17/1
f 14/21/7 18/28/7 19/29/7
f 9/14/8 13/20/8 14/22/8
f 12/18/9 16/24/9 13/19/9
f 11/17/10 15/23/10 16/24/10
f 20/30/11 24/36/11 21/31/11
f 13/20/12 17/26/12 18/27/12
f 16/24/13 20/30/13 17/25/13
f 15/23/14 19/29/14 20/30/14
f 22/33/15 26/40/15 27/41/15
f 19/29/16 23/35/16 24/36/16
f 18/28/17 22/33/17 23/35/17
f 17/26/18 21/32/18 22/34/18
f 25/37/19 29/43/19 30/46/19
f 21/32/20 25/37/20 26/39/20
f 24/36/21 28/42/21 25/38/21
f 23/35/22 27/41/22 28/42/22
f 31/49/23 30/47/23 29/44/23
f 28/42/24 32/50/24 29/45/24
f 27/41/25 31/49/25 32/50/25
f 26/40/26 30/48/26 31/49/26
